<?xml version="1.0" standalone="no"?>
<!DOCTYPE svg PUBLIC "-//W3C//DTD SVG 20010904//EN"
 "http://www.w3.org/TR/2001/REC-SVG-20010904/DTD/svg10.dtd">
<svg version="1.0" xmlns="http://www.w3.org/2000/svg"
 width="200.000000pt" height="200.000000pt" viewBox="0 0 200.000000 200.000000"
 preserveAspectRatio="xMidYMid meet">

<g transform="translate(0.000000,200.000000) scale(0.100000,-0.100000)"
fill="#7B5446" stroke="#C9A873" stroke-width="5">
<path d="M1053 1613 c-48 -9 -69 -79 -36 -115 22 -24 9 -33 -56 -41 -74 -9
-241 -91 -241 -118 0 -5 165 -9 368 -9 l367 1 -30 25 c-68 56 -178 103 -248
106 -41 1 -44 8 -21 43 39 60 -22 124 -103 108z"/>
<path d="M669 1293 c-8 -9 -27 -24 -43 -34 -29 -17 -30 -17 -80 9 -41 21 -65
26 -121 27 -118 0 -206 -62 -264 -184 -22 -48 -26 -69 -26 -151 1 -83 4 -101
27 -146 37 -70 95 -120 165 -140 54 -16 62 -16 123 0 36 9 71 16 78 16 8 0 35
-24 62 -53 27 -30 69 -65 94 -78 26 -13 46 -27 46 -31 0 -5 -19 -9 -42 -10
-68 -3 318 -15 518 -17 202 -1 374 10 294 19 l-45 5 63 60 c121 115 159 211
147 376 -6 91 -5 100 19 146 14 28 37 64 51 82 l27 31 -37 45 c-20 25 -40 45
-45 45 -5 0 -24 -9 -42 -20 -43 -26 -107 -26 -141 0 -24 19 -40 20 -420 20
-356 0 -396 -2 -408 -17z m1011 -1 c0 -8 -53 -42 -66 -42 -5 0 7 11 26 25 40
28 40 28 40 17z m-1182 -98 c43 -28 47 -54 18 -137 -19 -56 -26 -95 -26 -152
0 -87 -8 -108 -50 -130 -127 -66 -252 70 -221 241 29 152 174 245 279 178z
m555 -671 c-46 -2 -120 -2 -165 0 -46 1 -9 3 82 3 91 0 128 -2 83 -3z"/>
</g>
</svg>
